<?xml version="1.0" standalone="no"?>
<!DOCTYPE svg PUBLIC "-//W3C//DTD SVG 20010904//EN"
 "http://www.w3.org/TR/2001/REC-SVG-20010904/DTD/svg10.dtd">
<svg version="1.0" xmlns="http://www.w3.org/2000/svg"
 width="229.000000pt" height="229.000000pt" viewBox="0 0 229.000000 229.000000"
 preserveAspectRatio="xMidYMid meet">
<metadata>
Created by potrace 1.11, written by Peter Selinger 2001-2013
</metadata>
<g transform="translate(0.000000,229.000000) scale(0.100000,-0.100000)"
fill="#000000" stroke="none">
<path d="M2250 2080 c0 -5 5 -10 11 -10 7 0 9 -9 6 -21 -4 -15 -3 -19 5 -11
11 11 2 52 -13 52 -5 0 -9 -4 -9 -10z"/>
<path d="M859 2038 c-1 -13 -1 -29 0 -35 2 -17 -44 -17 -58 0 -13 16 -88 6
-203 -28 -41 -12 -48 -12 -48 0 0 18 -19 30 -31 18 -6 -6 -5 -40 2 -89 10 -62
21 -94 53 -146 22 -38 48 -71 59 -74 16 -5 17 -8 4 -22 -13 -15 -16 -80 -16
-438 l-1 -421 72 -44 c40 -24 78 -43 85 -41 7 2 13 -3 13 -10 0 -7 69 -56 153
-109 110 -70 155 -94 165 -86 9 7 12 5 11 -9 -1 -11 -1 -74 -1 -141 l2 -121
48 -11 c41 -9 49 -8 62 9 8 10 58 53 110 95 52 43 97 84 98 92 3 10 0 13 -8 8
-9 -6 -9 -2 -1 14 12 22 31 29 31 11 0 -22 37 -7 74 30 21 22 54 50 72 62 19
13 34 27 34 32 0 5 -8 2 -19 -5 -10 -8 -41 -29 -67 -47 l-49 -33 54 50 c30 28
51 51 47 51 -4 0 -43 -27 -87 -60 -43 -34 -79 -59 -79 -56 0 3 34 33 77 66 48
38 82 58 93 55 14 -5 16 2 14 45 -2 28 -6 55 -9 60 -9 14 6 61 17 54 5 -3 4 3
-4 15 -10 17 -10 25 0 41 7 12 12 54 11 112 -1 81 -2 87 -10 49 -12 -60 -16
-60 -24 -1 -6 43 -4 53 11 65 18 14 18 14 -6 15 -14 1 -19 4 -12 7 6 2 13 19
13 36 1 18 3 24 6 15 2 -10 9 -18 14 -18 5 0 9 45 9 100 0 89 -9 123 -23 88
-3 -7 -6 -4 -6 8 -1 11 -7 26 -13 34 -11 12 -10 12 5 1 9 -8 21 -11 24 -7 4 4
1 11 -6 15 -9 6 -10 10 -2 12 12 4 25 179 13 179 -4 0 -5 22 -4 50 3 36 -1 54
-12 65 -26 27 -20 72 16 108 30 31 31 32 14 4 -20 -33 -15 -60 9 -50 10 3 15
13 12 25 -3 11 9 42 29 75 25 42 34 68 33 97 -1 37 -2 38 -10 16 -8 -23 -8
-23 -6 6 2 24 0 30 -12 27 -9 -2 -43 1 -76 6 -55 8 -56 9 -20 11 l40 2 -44 14
c-24 7 -48 11 -52 8 -5 -3 -9 0 -9 6 0 7 -13 10 -33 9 -18 -2 -38 0 -45 5 -19
11 -293 23 -432 18 -107 -3 -128 -1 -139 12 -19 22 -31 20 -32 -6z m456 -38
c-4 -6 7 -10 27 -9 31 1 32 1 8 9 -18 6 -6 8 43 9 52 1 69 -3 73 -14 4 -9 19
-15 35 -15 16 0 29 -4 29 -9 0 -5 -10 -8 -22 -6 -13 2 -66 6 -118 10 -52 3
-106 9 -120 12 -22 6 -23 7 -5 14 29 11 57 11 50 -1z m-188 -147 c-2 -27 -3
-5 -3 47 0 52 1 74 3 48 2 -27 2 -69 0 -95z m50 -35 c-2 -29 -3 -6 -3 52 0 58
1 81 3 53 2 -29 2 -77 0 -105z m-117 -23 c0 -150 -2 -165 -17 -166 -17 -1 -17
-2 0 -6 14 -4 17 -16 17 -74 l0 -69 98 0 c53 0 91 4 85 8 -16 10 -16 181 -1
200 7 8 7 16 -1 26 -8 9 -10 50 -6 127 5 111 5 114 27 112 13 -1 84 -7 158
-13 227 -18 230 -18 230 -46 0 -33 -95 -174 -118 -174 -16 -1 -16 -1 0 -14 16
-11 17 -40 18 -288 0 -151 3 -289 6 -307 5 -22 3 -31 -7 -31 -10 0 -10 -3 -1
-12 16 -16 17 -284 1 -294 -8 -4 -8 -9 0 -17 6 -6 11 -32 11 -58 0 -47 -1 -49
-72 -107 -136 -110 -220 -172 -234 -172 -12 0 -14 52 -14 316 0 283 2 318 17
329 13 9 13 14 3 20 -9 6 -11 4 -5 -6 5 -10 5 -11 -3 -4 -6 6 -12 54 -14 108
-2 78 -6 97 -18 98 -86 5 -177 2 -169 -5 5 -6 9 -68 9 -139 0 -120 -1 -129
-20 -134 -19 -5 -19 -5 1 -22 18 -15 20 -26 17 -146 l-3 -130 -25 0 c-14 0
-85 36 -157 79 l-133 78 0 59 c0 54 2 59 23 60 l22 0 -22 11 c-22 11 -23 16
-23 143 l0 133 28 7 27 8 -25 6 -25 7 -3 148 c-2 101 1 153 9 162 8 10 8 14 0
14 -7 0 -11 20 -11 52 0 44 -7 62 -50 130 -60 95 -64 118 -17 119 26 1 140 12
375 38 9 1 12 -38 12 -164z m67 -27 c-3 -8 -6 -5 -6 6 -1 11 2 17 5 13 3 -3 4
-12 1 -19z m-419 -68 c-3 -3 -8 -23 -11 -45 -4 -39 -4 -39 -5 8 -1 26 -9 60
-19 75 -16 27 -16 27 13 -3 16 -16 26 -32 22 -35z m433 -19 c-9 -6 -12 -22 -9
-52 3 -33 -1 -48 -16 -63 -19 -19 -19 -19 -11 0 4 10 10 37 12 59 6 54 10 65
25 65 10 0 10 -2 -1 -9z m39 -11 c0 -5 -2 -10 -4 -10 -3 0 -8 5 -11 10 -3 6
-1 10 4 10 6 0 11 -4 11 -10z m16 -92 c6 -10 4 -10 -9 1 -9 7 -17 25 -16 40
l1 26 8 -27 c4 -14 11 -32 16 -40z m423 -6 c-2 -34 -7 -49 -16 -49 -9 0 -11 6
-7 16 4 9 9 31 12 49 6 48 13 39 11 -16z m-917 -169 c8 -10 6 -13 -6 -13 -13
0 -16 11 -14 63 2 60 2 60 5 12 3 -27 9 -55 15 -62z m3 -43 c-3 -5 -10 -29
-14 -52 l-9 -43 -1 53 c-1 41 2 52 15 52 8 0 12 -4 9 -10z m911 -168 c-12 -11
-15 5 -8 44 l7 39 3 -39 c2 -21 1 -41 -2 -44z m-504 -17 c-6 -35 -21 -19 -28
31 l-5 39 19 -22 c13 -15 18 -31 14 -48z m68 30 c-7 -9 -15 -13 -19 -10 -3 3
1 10 9 15 21 14 24 12 10 -5z m440 -50 c-7 -9 -15 -13 -17 -11 -7 7 7 26 19
26 6 0 6 -6 -2 -15z m-459 -75 c23 0 38 -4 34 -9 -6 -11 -72 -3 -95 11 -12 8
-11 8 3 4 10 -3 37 -6 58 -6z m-449 -77 c6 -8 6 -30 -1 -65 -18 -92 -14 -104
41 -139 66 -43 55 -48 -16 -7 l-57 33 5 50 c3 28 7 84 7 125 1 41 4 62 6 45 3
-16 9 -35 15 -42z m465 -200 c-3 -10 -5 -4 -5 12 0 17 2 24 5 18 2 -7 2 -21 0
-30z m-259 -111 c28 -19 52 -37 52 -39 0 -5 -4 -3 -87 50 -35 21 -63 41 -63
43 0 7 37 -14 98 -54z m259 -4 c-3 -8 -6 -5 -6 6 -1 11 2 17 5 13 3 -3 4 -12
1 -19z m183 -308 c-19 -16 -39 -29 -44 -30 -5 0 8 14 29 30 49 39 60 39 15 0z
m-193 -72 c-2 -13 -4 -5 -4 17 -1 22 1 32 4 23 2 -10 2 -28 0 -40z m98 -3
c-22 -19 -44 -34 -49 -35 -12 0 -8 4 40 40 53 40 58 37 9 -5z"/>
<path d="M758 1818 c9 -9 15 -9 24 0 9 9 7 12 -12 12 -19 0 -21 -3 -12 -12z"/>
<path d="M780 1800 c0 -5 5 -10 10 -10 6 0 10 5 10 10 0 6 -4 10 -10 10 -5 0
-10 -4 -10 -10z"/>
<path d="M842 1783 l-53 -4 4 -75 c2 -61 0 -74 -13 -74 -13 0 -13 -2 0 -9 9
-7 14 -27 14 -60 0 -28 0 -49 1 -48 0 1 9 13 20 26 11 14 15 21 9 18 -8 -5
-12 6 -12 32 -1 35 1 38 26 35 18 -2 20 -1 7 3 -38 11 -46 40 -12 46 l22 4
-22 2 c-13 0 -23 6 -23 12 0 6 7 8 16 5 9 -3 22 -6 30 -6 8 0 14 -10 15 -22 1
-21 1 -21 9 4 11 36 42 88 53 88 5 0 3 -10 -5 -22 -19 -30 -29 -68 -17 -68 5
0 9 8 9 17 0 9 7 25 17 35 16 17 17 17 36 1 20 -18 20 -18 3 14 -11 21 -12 34
-5 38 6 4 13 4 16 1 4 -3 0 -6 -8 -6 -9 0 -10 -3 -3 -8 15 -10 30 -77 15 -68
-6 4 -11 3 -11 -3 0 -5 5 -13 10 -16 6 -3 10 -13 10 -21 0 -8 -4 -13 -8 -10
-4 2 -8 -4 -8 -15 0 -19 1 -19 13 -3 7 10 13 30 13 45 0 18 6 29 18 32 16 4
16 5 0 6 -14 1 -18 10 -18 41 l0 40 -57 -2 c-32 -1 -82 -3 -111 -5z m44 -45
c4 -6 -2 -7 -17 -3 -35 10 -45 23 -15 18 15 -3 29 -10 32 -15z m-18 -18 c6 0
12 -7 12 -15 0 -16 -22 -11 -55 13 -19 14 -19 14 5 8 14 -3 31 -6 38 -6z"/>
<path d="M1292 1643 c2 -117 3 -128 5 -50 4 95 4 97 28 97 13 0 26 4 29 8 3 5
-8 6 -25 4 -31 -5 -41 13 -11 21 16 4 16 5 0 6 -10 0 -18 6 -18 12 0 6 9 8 21
4 15 -5 19 -4 15 4 -4 6 -14 11 -22 11 -8 0 -12 5 -9 10 4 7 13 6 27 -1 16 -9
19 -8 16 3 -3 7 -17 14 -31 16 l-27 3 2 -148z"/>
<path d="M1373 1774 c9 -3 17 -12 17 -19 0 -8 4 -16 9 -19 5 -4 7 3 4 14 -4
15 0 20 16 20 11 0 21 -4 21 -10 0 -5 7 -6 17 -3 11 4 14 3 9 -5 -5 -8 -2 -10
8 -6 9 3 16 2 16 -4 0 -6 -6 -13 -12 -15 -8 -3 -6 -6 5 -6 12 -1 17 7 17 24 0
14 -1 25 -2 25 -93 7 -139 8 -125 4z"/>
<path d="M1350 1729 c0 -5 5 -7 10 -4 6 3 10 8 10 11 0 2 -4 4 -10 4 -5 0 -10
-5 -10 -11z"/>
<path d="M1425 1730 c3 -5 8 -10 11 -10 2 0 4 5 4 10 0 6 -5 10 -11 10 -5 0
-7 -4 -4 -10z"/>
<path d="M1485 1701 c-3 -5 -1 -12 5 -16 5 -3 10 1 10 9 0 18 -6 21 -15 7z"/>
<path d="M1485 1660 c-3 -5 -1 -10 4 -10 6 0 11 5 11 10 0 6 -2 10 -4 10 -3 0
-8 -4 -11 -10z"/>
<path d="M1003 1575 c0 -22 2 -30 4 -17 2 12 2 30 0 40 -3 9 -5 -1 -4 -23z"/>
<path d="M794 1481 c0 -11 4 -17 8 -15 10 7 10 34 0 34 -4 0 -8 -9 -8 -19z"/>
<path d="M794 1180 c0 -13 4 -16 10 -10 7 7 7 13 0 20 -6 6 -10 3 -10 -10z"/>
<path d="M1292 1160 c0 -14 2 -19 5 -12 2 6 2 18 0 25 -3 6 -5 1 -5 -13z"/>
<path d="M790 1131 c0 -6 4 -13 10 -16 6 -3 7 1 4 9 -7 18 -14 21 -14 7z"/>
<path d="M794 1044 l-1 -55 23 22 24 22 -21 15 c-14 10 -17 17 -10 22 9 5 9
10 -1 18 -10 8 -13 -1 -14 -44z m26 -14 c0 -5 -2 -10 -4 -10 -3 0 -8 5 -11 10
-3 6 -1 10 4 10 6 0 11 -4 11 -10z"/>
<path d="M1290 796 l0 -257 58 42 c31 22 78 55 104 73 47 31 48 32 48 85 0 66
-9 63 -13 -5 -3 -32 -8 -48 -16 -46 -7 1 -10 -1 -8 -6 3 -4 -8 -15 -24 -24
-16 -10 -29 -13 -29 -7 0 5 -9 4 -20 -3 -11 -7 -18 -18 -16 -24 2 -6 -4 -16
-15 -22 -15 -10 -21 -8 -32 8 -8 11 -16 18 -19 15 -3 -3 -6 90 -7 206 0 117
-3 214 -6 217 -3 3 -5 -110 -5 -252z m120 -160 c0 -2 -7 -7 -16 -10 -8 -3 -12
-2 -9 4 6 10 25 14 25 6z m-82 -45 c3 -8 -1 -12 -9 -9 -7 2 -15 10 -17 17 -3
8 1 12 9 9 7 -2 15 -10 17 -17z"/>
<path d="M790 950 c0 -39 -5 -35 123 -104 l87 -48 -2 54 c-1 50 -2 50 -5 11
-2 -24 -8 -43 -13 -43 -5 0 -22 12 -39 26 -17 14 -31 22 -31 17 0 -4 -4 -3 -8
2 -4 6 -29 20 -55 33 -37 17 -47 27 -43 40 3 9 1 24 -4 32 -7 11 -10 6 -10
-20z"/>
<path d="M820 956 c0 -8 4 -17 9 -20 5 -4 7 3 4 14 -6 23 -13 26 -13 6z"/>
<path d="M951 873 c7 -12 15 -20 18 -17 3 2 -3 12 -13 22 -17 16 -18 16 -5 -5z"/>
<path d="M1480 805 c-11 -13 -10 -14 4 -9 9 3 16 10 16 15 0 13 -6 11 -20 -6z"/>
<path d="M1437 729 c12 -12 25 -20 28 -17 3 3 -7 13 -22 23 l-28 17 22 -23z"/>
<path d="M1397 724 c11 -11 24 -28 26 -39 5 -16 5 -15 4 4 -1 13 -13 30 -27
39 l-25 14 22 -18z"/>
<path d="M1386 683 c-6 -14 -5 -15 5 -6 7 7 10 15 7 18 -3 3 -9 -2 -12 -12z"/>
<path d="M2157 2026 c-4 -9 -12 -14 -19 -11 -16 6 -54 -22 -44 -32 4 -4 12 0
17 10 10 16 12 16 28 -5 17 -21 19 -21 35 -5 15 15 16 19 3 37 -12 17 -15 18
-20 6z"/>
<path d="M2269 2013 c-1 -5 -1 -11 0 -15 0 -5 -3 -8 -9 -8 -5 0 -10 5 -10 10
0 6 -5 10 -11 10 -6 0 -8 -8 -4 -19 3 -11 -1 -25 -10 -34 -14 -14 -13 -16 5
-22 11 -3 24 -4 28 -1 5 3 9 -1 9 -9 0 -9 -9 -12 -32 -8 -19 3 -35 0 -39 -6
-4 -6 -12 -11 -19 -11 -8 0 -8 3 1 12 19 19 14 37 -9 31 -12 -3 -24 -1 -28 6
-5 8 -19 0 -44 -24 -20 -19 -39 -30 -42 -25 -3 6 -3 10 2 10 4 0 15 11 24 23
16 22 16 23 -4 25 -15 1 -18 -1 -9 -7 17 -11 -61 -22 -103 -14 -23 4 -27 2
-15 -6 13 -10 13 -12 0 -21 -23 -15 -38 -12 -57 10 -16 19 -17 19 -39 -5 -12
-13 -25 -21 -28 -18 -3 4 -6 1 -6 -5 0 -6 13 -19 29 -28 17 -10 28 -21 25 -26
-3 -4 0 -8 7 -8 10 0 10 -3 2 -11 -8 -8 -20 -7 -43 5 -28 13 -31 14 -26 0 6
-15 -11 -53 -29 -66 -5 -4 -6 -8 -1 -8 5 0 18 8 29 18 18 16 19 16 17 -3 -4
-33 0 -41 10 -25 9 13 13 11 30 -10 11 -14 20 -21 20 -16 0 6 7 1 16 -10 15
-18 15 -18 9 10 -4 19 -1 34 11 47 24 26 34 15 34 -36 0 -34 -3 -43 -14 -39
-9 3 -13 -1 -13 -12 1 -10 -12 -27 -30 -38 -25 -16 -32 -28 -33 -52 0 -33 38
-84 62 -84 7 1 2 7 -12 15 -29 17 -13 20 27 4 20 -7 24 -12 14 -18 -9 -6 -10
-11 -2 -15 20 -13 12 -26 -16 -27 -23 -1 -24 -2 -6 -6 12 -2 33 3 46 12 23 15
25 15 32 -7 15 -49 13 -68 -6 -82 -20 -14 -20 -14 5 -41 14 -15 26 -32 26 -36
0 -5 7 -9 15 -9 8 0 15 5 15 12 0 7 5 5 13 -4 6 -9 28 -21 47 -26 30 -8 24
-10 -39 -8 -69 1 -76 -1 -87 -23 -11 -21 -13 -22 -16 -5 -4 15 -6 13 -13 -9
-5 -19 -3 -37 6 -53 10 -20 10 -27 -1 -37 -10 -10 -11 -9 -5 3 6 11 3 10 -12
-3 -11 -9 -23 -14 -26 -10 -4 3 -7 -7 -8 -23 -1 -26 -2 -27 -7 -6 -4 13 -10
23 -14 23 -5 -1 -12 -1 -18 -1 -5 0 -10 -4 -10 -10 0 -5 8 -7 18 -4 15 5 15 4
1 -8 -8 -7 -18 -21 -22 -30 -3 -10 -12 -18 -19 -18 -6 0 -3 -7 8 -15 22 -17 3
-20 -27 -4 -23 12 -95 18 -110 8 -6 -3 12 -15 40 -25 28 -10 51 -22 51 -27 0
-4 5 -5 10 -2 6 3 10 -1 10 -11 0 -13 3 -14 14 -5 11 9 19 5 40 -19 29 -35 40
-67 40 -122 1 -20 4 -34 9 -31 4 2 7 -3 7 -11 0 -9 5 -16 11 -16 5 0 7 -4 4
-10 -4 -6 6 -10 24 -10 40 0 50 21 37 78 -11 48 -28 78 -80 146 -26 34 -27 37
-8 27 14 -8 22 -8 22 -1 0 5 5 10 11 10 5 0 8 -4 4 -9 -3 -6 3 -15 14 -21 11
-5 27 -22 35 -38 40 -73 56 -114 51 -122 -3 -6 -1 -10 5 -10 6 0 8 -5 3 -12
-25 -42 -8 -58 66 -61 29 -1 41 -6 44 -19 6 -23 25 -24 23 -1 -1 21 33 30 45
11 13 -20 11 -31 -6 -24 -8 3 -15 1 -15 -4 0 -6 -29 -10 -64 -10 -40 0 -66 -4
-68 -12 -3 -8 -9 -8 -24 0 -10 6 -13 12 -6 12 6 0 12 4 12 9 0 5 -33 12 -72
15 -129 9 -220 25 -230 40 -5 8 -8 7 -8 -1 0 -7 -9 -13 -19 -13 -28 0 -52 -11
-45 -21 3 -5 22 -9 42 -9 33 0 34 -1 16 -14 -18 -14 -18 -15 6 -20 71 -14 128
-15 134 0 3 8 1 14 -4 14 -6 0 -10 -4 -10 -10 0 -5 -4 -10 -10 -10 -5 0 -7 7
-3 15 4 13 -1 15 -35 9 -25 -4 -42 -2 -46 5 -5 7 5 12 26 13 65 3 106 -4 101
-17 -3 -8 12 -9 49 -5 50 7 78 3 51 -7 -23 -8 -14 -23 15 -24 15 0 36 -4 47
-9 16 -7 10 -9 -25 -11 -25 -1 -35 -4 -22 -6 12 -2 20 -9 16 -14 -3 -5 -10 -7
-15 -4 -5 3 -6 -1 -3 -9 4 -11 0 -16 -15 -16 -12 0 -21 -4 -21 -10 0 -6 28
-10 65 -10 36 0 65 -4 65 -10 0 -6 -36 -8 -91 -6 l-91 4 -37 41 c-64 69 -72
50 -11 -27 43 -53 49 -68 26 -59 -10 4 -13 1 -9 -9 4 -11 14 -14 32 -11 33 7
61 -8 61 -33 0 -14 -7 -20 -21 -20 -34 0 -16 -25 21 -28 31 -3 32 -2 26 25 -5
25 -4 25 17 -9 23 -40 37 -48 37 -22 0 8 5 12 10 9 6 -3 10 -24 10 -45 0 -41
-19 -67 -21 -28 -1 20 -2 21 -6 3 -8 -31 -23 -45 -49 -45 -14 0 -33 -6 -44
-12 -16 -10 -25 -10 -47 3 -19 10 -39 13 -63 8 -19 -3 -28 -7 -20 -8 24 -2
-20 -27 -65 -37 -22 -4 -46 -8 -52 -7 -7 0 -13 -3 -13 -8 0 -8 90 -15 128 -10
6 1 12 -2 12 -8 0 -5 -6 -12 -12 -14 -7 -3 -3 -6 10 -6 12 -1 22 3 22 7 0 5
17 8 38 7 20 -2 40 2 45 9 5 8 9 8 15 -2 5 -7 32 -15 61 -19 44 -5 55 -3 63
10 5 11 22 17 42 17 18 0 55 3 81 7 l47 6 -6 65 c-8 74 -13 89 -29 73 -16 -16
-47 -13 -47 4 0 11 11 15 40 15 34 0 40 3 40 20 0 11 -7 23 -15 27 -14 5 -14
8 -2 27 11 17 14 92 16 364 l2 342 -22 9 -23 8 22 5 c29 8 28 25 0 31 l-23 4
23 2 c25 1 28 11 10 30 -10 11 -10 14 0 18 6 3 12 14 12 26 0 26 -59 77 -89
77 -22 0 -41 22 -24 27 6 2 18 9 27 16 28 20 -95 22 -134 2 -36 -19 -39 -10
-6 20 16 15 29 19 39 13 9 -5 18 -4 22 2 3 5 11 10 16 10 6 0 7 -5 3 -12 -4
-7 -3 -8 4 -4 23 14 12 26 -23 26 -29 0 -36 4 -41 25 -6 24 -7 25 -23 7 -9
-10 -22 -17 -28 -16 -7 1 -18 2 -23 3 -6 0 -15 12 -20 26 -8 22 -16 25 -55 25
-37 0 -45 3 -45 18 0 10 11 29 25 42 24 23 25 23 45 5 11 -10 20 -13 20 -7 0
6 -6 13 -12 16 -10 5 -10 7 0 12 6 3 10 10 7 15 -4 5 1 6 9 3 17 -7 22 11 6
21 -12 7 -14 95 -2 95 4 0 22 -4 40 -9 20 -6 42 -6 55 -1 21 8 21 9 2 11 -11
1 -26 1 -32 0 -7 -1 -13 3 -13 10 0 7 -10 9 -30 6 -18 -4 -30 -2 -30 4 0 6 5
7 10 4 6 -3 10 -1 10 4 0 16 -11 13 -32 -6 -16 -14 -21 -15 -27 -4 -5 8 -14
10 -20 7 -6 -4 -11 -2 -11 3 0 6 9 11 20 11 11 0 20 4 20 9 0 7 75 24 115 26
6 0 15 5 20 12 12 15 69 37 61 24 -11 -17 5 -39 30 -44 13 -2 24 0 24 6 0 5 6
4 14 -2 11 -9 15 -9 18 0 3 8 11 10 24 5 17 -8 15 -10 -13 -17 -20 -6 -37 -20
-46 -37 -7 -15 -19 -26 -25 -25 -7 2 -12 -1 -12 -6 0 -5 -12 -11 -27 -13 -22
-2 -29 -9 -33 -33 -3 -16 -9 -29 -13 -27 -8 3 -53 -20 -80 -42 -14 -11 -16
-18 -7 -41 8 -21 13 -25 23 -16 10 8 17 7 25 -1 8 -8 10 -2 5 26 -5 34 -4 38
25 48 24 9 32 19 34 42 2 20 9 30 22 32 35 5 76 26 76 40 0 15 18 29 27 20 3
-3 0 -12 -7 -21 -9 -11 -9 -15 -1 -15 6 0 14 7 18 16 3 8 12 13 19 10 11 -4
14 16 14 109 0 63 -2 115 -5 115 -3 0 -6 -3 -6 -7z m-247 -105 c-8 -8 -17 -8
-34 0 -22 10 -21 11 12 11 26 1 31 -2 22 -11z m82 -492 c-6 -16 -24 -23 -24
-8 0 10 22 33 27 28 2 -2 1 -11 -3 -20z m-27 -71 c5 -4 2 -5 -4 -1 -9 5 -13 0
-13 -14 0 -27 -24 -21 -28 7 -2 14 2 19 17 18 11 -1 24 -5 28 -10z m123 -31
c11 -12 11 -18 -2 -30 -18 -18 -48 -8 -48 15 0 33 28 42 50 15z m-10 -59 c0
-2 -10 -10 -22 -16 -21 -11 -22 -11 -9 4 13 16 31 23 31 12z m47 -11 c-3 -3
-12 -4 -19 -1 -8 3 -5 6 6 6 11 1 17 -2 13 -5z m-150 -36 c-3 -8 -6 -5 -6 6
-1 11 2 17 5 13 3 -3 4 -12 1 -19z m-12 -56 c-7 -7 -45 28 -57 53 -7 12 3 7
26 -14 19 -19 34 -37 31 -39z m148 51 c-7 -2 -19 -2 -25 0 -7 3 -2 5 12 5 14
0 19 -2 13 -5z m-208 -83 c-17 -19 -45 -27 -45 -14 0 11 34 33 49 34 11 0 10
-5 -4 -20z m225 -49 c0 -5 -7 -14 -15 -21 -12 -10 -15 -10 -15 2 0 8 3 18 7
21 9 10 23 9 23 -2z m-130 -21 c0 -5 -4 -10 -10 -10 -5 0 -10 5 -10 10 0 6 5
10 10 10 6 0 10 -4 10 -10z m90 -280 c0 -5 -10 -10 -22 -10 -19 0 -20 2 -8 10
19 13 30 13 30 0z m3 -127 c-7 -2 -21 -2 -30 0 -10 3 -4 5 12 5 17 0 24 -2 18
-5z m-60 -20 c-7 -2 -19 -2 -25 0 -7 3 -2 5 12 5 14 0 19 -2 13 -5z m-93 -93
c0 -13 -40 -13 -60 0 -11 7 -5 10 23 10 20 0 37 -4 37 -10z m76 -55 c16 -8 22
-15 14 -15 -9 0 -20 4 -25 9 -6 5 -19 11 -30 14 -14 3 -15 5 -4 6 9 0 30 -6
45 -14z m109 -25 c-3 -5 -13 -10 -21 -10 -8 0 -12 5 -9 10 3 6 13 10 21 10 8
0 12 -4 9 -10z m-37 -80 c-1 -16 -6 -26 -10 -24 -4 3 -16 0 -27 -5 -15 -8 -20
-7 -25 5 -14 37 -7 50 29 51 33 1 35 -1 33 -27z m-274 -109 c3 -5 -10 -11 -29
-13 -34 -4 -43 1 -28 15 9 10 51 8 57 -2z"/>
<path d="M40 2003 c0 -7 -7 -13 -15 -13 -18 0 -16 25 -21 -275 -2 -161 0 -245
6 -235 8 12 10 11 10 -6 0 -11 4 -24 9 -30 15 -15 24 -74 12 -74 -6 0 -11 -4
-11 -10 0 -5 7 -7 15 -4 8 4 15 12 15 19 0 8 5 17 11 21 9 5 10 -7 4 -42 -5
-34 -17 -62 -41 -91 -43 -52 -43 -73 0 -111 30 -26 33 -32 20 -42 -7 -7 -14
-18 -14 -24 0 -7 -5 -17 -12 -24 -11 -11 -22 -52 -14 -52 3 0 11 6 18 13 48
46 69 56 98 45 32 -11 61 3 145 66 56 43 56 43 50 120 -3 43 0 75 7 83 7 9 7
13 -1 13 -21 0 -10 15 33 48 24 18 50 30 57 27 18 -6 53 21 44 34 -3 6 -11 11
-16 11 -20 0 -69 44 -69 62 0 14 8 18 39 18 52 0 87 14 93 37 4 16 -1 18 -52
15 -52 -3 -59 -1 -79 24 -12 15 -23 25 -25 23 -2 -2 -6 -37 -10 -78 -3 -41 -8
-76 -10 -78 -7 -7 -18 175 -12 195 4 11 2 23 -4 27 -22 13 -8 25 25 20 20 -2
34 -1 31 3 -7 11 17 38 34 37 8 0 20 12 27 27 8 19 19 28 36 28 23 0 23 1 14
60 -5 33 -13 60 -18 60 -5 0 -6 -6 -3 -14 3 -8 0 -24 -6 -36 -8 -16 -9 -25 -2
-29 7 -4 7 -12 3 -20 -6 -10 -11 -5 -16 17 l-7 32 -31 -30 c-27 -25 -40 -30
-84 -30 -44 0 -55 -4 -68 -24 -9 -13 -17 -41 -18 -63 -4 -50 -21 -45 -27 9 -7
59 -20 77 -58 82 -31 3 -45 -8 -20 -16 14 -5 3 -25 -23 -38 -15 -9 -19 -7 -19
5 0 8 7 15 15 15 17 0 20 16 5 25 -13 8 -13 56 0 89 8 23 7 26 -10 26 -12 0
-28 13 -40 33 -11 17 -20 26 -20 20z m-8 -292 c-5 -11 -9 -5 -12 19 -8 47 2
75 11 31 4 -19 4 -41 1 -50z m228 -92 c0 -3 -13 -22 -29 -42 -21 -27 -31 -33
-40 -24 -8 8 -11 8 -11 -2 0 -10 -3 -11 -14 -2 -16 14 -9 61 10 61 8 0 14 7
14 15 0 8 7 15 15 15 8 0 15 8 15 18 0 14 4 12 20 -8 11 -14 20 -28 20 -31z
m-102 9 c-3 -7 -11 -13 -18 -13 -7 0 -15 6 -17 13 -3 7 4 12 17 12 13 0 20 -5
18 -12z m-22 -74 c1 -16 -2 -49 -6 -74 l-8 -45 -1 42 c-1 36 -4 41 -18 36 -17
-6 -16 -5 0 15 18 20 18 21 -1 33 -12 8 -17 19 -14 31 4 17 7 17 26 5 13 -9
21 -26 22 -43z m90 -41 c-7 -20 -18 -38 -25 -39 -6 -1 -7 0 -1 3 5 2 10 11 10
19 0 16 18 54 25 54 2 0 -2 -17 -9 -37z m69 -63 c3 -5 1 -10 -4 -10 -6 0 -11
5 -11 10 0 6 2 10 4 10 3 0 8 -4 11 -10z"/>
<path d="M1920 1960 c0 -5 5 -10 10 -10 6 0 10 5 10 10 0 6 -4 10 -10 10 -5 0
-10 -4 -10 -10z"/>
<path d="M2097 1863 c-3 -5 -1 -24 4 -43 8 -34 8 -34 6 -4 -3 26 0 30 16 26
14 -3 18 -1 15 9 -5 16 -34 24 -41 12z"/>
<path d="M2262 1731 c-14 -38 -42 -42 -42 -5 0 15 -4 23 -11 19 -6 -4 -8 -14
-4 -22 3 -9 -2 -24 -12 -35 -16 -18 -17 -18 -29 3 -10 19 -11 14 -9 -34 3 -55
2 -57 -24 -58 -37 -1 -56 -11 -58 -32 -1 -14 3 -16 15 -11 10 4 31 12 49 18
26 9 33 17 38 48 7 39 35 68 66 68 16 0 47 55 37 66 -3 3 -10 -9 -16 -25z"/>
<path d="M1777 1705 c-4 -8 -2 -17 3 -20 6 -4 10 3 10 14 0 25 -6 27 -13 6z"/>
<path d="M2008 1693 c7 -3 16 -2 19 1 4 3 -2 6 -13 5 -11 0 -14 -3 -6 -6z"/>
<path d="M1895 1669 c-11 -17 1 -21 15 -4 8 9 8 15 2 15 -6 0 -14 -5 -17 -11z"/>
<path d="M560 1586 c0 -14 -4 -36 -10 -50 -9 -26 3 -46 15 -25 11 17 14 99 4
99 -5 0 -9 -11 -9 -24z"/>
<path d="M2171 1473 c0 -13 2 -14 6 -4 4 10 7 11 13 1 4 -7 13 -9 20 -5 9 6 9
9 -1 16 -22 14 -39 10 -38 -8z"/>
<path d="M2 1300 l-2 -55 25 30 c25 31 33 51 15 40 -5 -3 -10 1 -10 10 0 9 -4
14 -9 11 -5 -4 -11 0 -13 6 -3 7 -5 -12 -6 -42z"/>
<path d="M1895 1230 c-19 -7 -19 -7 3 -14 26 -9 41 -1 26 13 -5 5 -18 5 -29 1z"/>
<path d="M1940 1221 c0 -11 5 -23 10 -26 6 -3 10 3 10 14 0 11 -4 23 -10 26
-5 3 -10 -3 -10 -14z"/>
<path d="M320 1090 c-9 -6 -10 -10 -3 -10 6 0 15 5 18 10 8 12 4 12 -15 0z"/>
<path d="M534 1083 c-32 -4 -61 -43 -48 -64 3 -5 2 -8 -3 -7 -8 3 -34 -18
-112 -89 -36 -32 -36 -32 -11 -33 18 0 41 16 77 53 57 58 77 92 67 109 -4 6
-3 8 3 5 13 -8 73 12 73 24 0 5 -3 8 -7 7 -5 0 -22 -3 -39 -5z"/>
<path d="M199 1053 c-13 -16 -12 -17 4 -4 16 13 21 21 13 21 -2 0 -10 -8 -17
-17z"/>
<path d="M314 1020 c0 -25 3 -36 8 -28 10 16 11 68 1 68 -5 0 -8 -18 -9 -40z"/>
<path d="M1722 965 l-2 -45 45 5 c25 2 45 0 45 -6 0 -5 -12 -9 -26 -9 -36 0
-64 -17 -64 -39 0 -15 9 -20 45 -23 25 -2 46 1 48 6 2 5 9 6 16 2 9 -6 9 -11
0 -22 -8 -10 -15 -11 -24 -4 -8 7 -20 1 -40 -20 l-29 -30 60 0 c33 0 65 -5 72
-12 6 -6 15 -9 19 -5 8 9 -12 99 -34 144 -22 47 -81 103 -108 103 -19 0 -22
-6 -23 -45z"/>
<path d="M558 947 c-12 -29 -10 -63 3 -50 6 6 9 23 7 39 -2 24 -4 26 -10 11z"/>
<path d="M1866 927 c3 -10 9 -15 12 -12 3 3 0 11 -7 18 -10 9 -11 8 -5 -6z"/>
<path d="M293 879 c-6 -6 -27 -11 -47 -12 -27 -2 -36 -6 -36 -19 0 -10 -5 -18
-11 -18 -6 0 -24 -9 -39 -20 l-28 -20 -30 34 c-30 34 -31 34 -48 15 -9 -10
-23 -19 -29 -19 -19 0 -23 -32 -25 -162 -1 -102 1 -118 17 -128 13 -8 14 -13
6 -16 -22 -9 -14 -26 7 -19 12 4 31 0 45 -9 13 -9 44 -16 67 -16 l43 0 -46
-44 c-36 -35 -56 -46 -93 -51 -36 -6 -46 -11 -46 -26 0 -18 2 -18 46 1 25 11
52 20 59 20 8 0 33 22 55 48 41 47 44 49 101 50 48 1 63 -2 80 -19 15 -15 33
-20 77 -20 31 0 80 -2 109 -3 34 -2 53 1 56 9 4 8 -5 11 -24 10 -16 -1 -27 1
-24 4 3 3 -5 11 -17 19 -22 13 -22 13 10 8 24 -4 32 -2 29 7 -9 27 92 53 108
27 8 -13 43 0 50 18 5 14 4 15 -6 5 -20 -20 -45 -15 -59 13 -12 21 -12 29 -1
46 7 11 10 23 7 26 -3 3 -6 1 -6 -4 0 -5 -9 -10 -20 -11 -16 -1 -20 2 -15 18
4 11 2 19 -5 19 -12 0 -3 69 11 84 12 13 11 26 0 26 -5 0 -12 -12 -16 -27 -3
-16 -15 -39 -26 -53 l-21 -25 6 30 c2 17 1 37 -3 44 -5 8 -11 -8 -15 -43 -4
-31 -12 -59 -18 -62 -6 -4 -8 -2 -4 4 3 6 2 13 -3 17 -6 3 -7 13 -4 22 4 11 3
14 -5 9 -7 -4 -12 -20 -12 -35 0 -16 -7 -35 -16 -42 -15 -12 -16 -11 -10 8 4
12 4 39 0 59 l-7 38 -17 -44 c-13 -33 -18 -39 -23 -26 -9 24 -9 28 3 21 6 -3
10 -2 10 4 0 5 -5 13 -10 16 -6 4 -17 21 -24 38 -8 18 -15 25 -15 17 -1 -13
-2 -13 -11 0 -7 11 -10 7 -10 -17 0 -18 -4 -33 -9 -33 -5 0 -12 -18 -16 -40
-4 -22 -11 -40 -16 -40 -5 0 -7 -16 -4 -35 2 -21 0 -33 -5 -30 -6 4 -10 12
-10 19 0 8 -8 20 -17 27 -15 12 -16 12 -9 -5 6 -19 6 -19 -12 -3 -10 9 -22 14
-25 11 -4 -4 -7 8 -7 27 0 19 -1 48 -2 64 -2 21 1 30 12 29 12 -1 14 9 11 43
-3 46 1 49 44 33 14 -5 24 -6 21 -2 -3 5 -6 32 -7 61 -3 55 -9 67 -26 50z m-3
-29 c0 -5 -4 -10 -10 -10 -5 0 -10 5 -10 10 0 6 5 10 10 10 6 0 10 -4 10 -10z
m-95 -150 c-3 -5 -14 -10 -23 -9 -14 0 -13 2 3 9 27 11 27 11 20 0z m-122 -62
c6 -22 5 -22 -8 -4 -17 22 -20 40 -6 32 5 -3 11 -16 14 -28z m37 0 c0 -16 -3
-19 -11 -11 -6 6 -8 16 -5 22 11 17 16 13 16 -11z m467 -37 c0 -22 -5 -29 -19
-28 -22 2 -22 6 -2 35 20 28 21 28 21 -7z m-437 -101 c0 -5 -5 -10 -11 -10 -5
0 -7 5 -4 10 3 6 8 10 11 10 2 0 4 -4 4 -10z m280 -51 c0 -6 -4 -7 -10 -4 -5
3 -10 11 -10 16 0 6 5 7 10 4 6 -3 10 -11 10 -16z"/>
<path d="M570 814 c0 -14 4 -23 10 -19 6 3 10 15 10 26 0 10 -4 19 -10 19 -5
0 -10 -12 -10 -26z"/>
<path d="M1738 823 c-10 -2 -18 -12 -18 -20 0 -14 3 -14 20 2 17 15 26 28 18
24 -2 -1 -11 -3 -20 -6z"/>
<path d="M431 754 c0 -11 3 -14 6 -6 3 7 2 16 -1 19 -3 4 -6 -2 -5 -13z"/>
<path d="M665 699 c-10 -30 0 -33 13 -4 6 14 7 25 2 25 -5 0 -12 -9 -15 -21z"/>
<path d="M696 701 c-3 -4 1 -17 8 -27 13 -17 14 -17 9 9 -6 29 -9 32 -17 18z"/>
<path d="M662 588 c-14 -14 -16 -28 -2 -28 5 0 14 9 20 20 12 22 1 27 -18 8z"/>
<path d="M677 553 c-4 -3 -7 -11 -7 -17 0 -6 5 -5 12 2 6 6 9 14 7 17 -3 3 -9
2 -12 -2z"/>
<path d="M773 443 c9 -2 25 -2 35 0 9 3 1 5 -18 5 -19 0 -27 -2 -17 -5z"/>
<path d="M560 382 c0 -5 -21 -8 -47 -8 -37 1 -48 -3 -51 -16 -3 -16 5 -18 60
-18 39 1 70 6 82 15 19 15 19 15 -2 15 -12 0 -22 5 -22 10 0 6 -4 10 -10 10
-5 0 -10 -4 -10 -8z"/>
<path d="M520 310 l-55 -7 55 -3 c110 -7 135 -7 155 2 14 6 8 7 -23 4 -23 -2
-40 0 -36 5 6 10 -10 10 -96 -1z"/>
<path d="M105 270 c-27 -4 -60 -6 -71 -3 -24 5 -41 -12 -20 -20 10 -4 12 -19
8 -55 -4 -49 -3 -51 32 -74 20 -12 36 -26 36 -29 0 -10 -50 -8 -56 2 -3 5 3 6
13 3 15 -5 16 -4 3 5 -8 6 -23 11 -32 11 -15 0 -18 -9 -18 -55 l0 -55 1145 0
c909 0 1145 3 1145 13 0 26 -13 57 -21 51 -5 -3 -9 2 -9 10 0 13 -14 16 -83
16 -59 0 -89 4 -105 16 l-23 16 22 19 c12 10 28 19 35 19 7 0 16 5 19 10 4 6
-20 10 -64 10 -76 0 -87 -9 -49 -40 l23 -18 -46 -7 c-25 -4 -68 -5 -95 -4 -27
2 -67 1 -89 0 -36 -3 -34 -5 25 -13 36 -5 103 -11 150 -13 47 -2 105 -4 130
-6 l45 -2 -52 -6 c-28 -4 -105 -3 -170 2 -143 10 -464 0 -489 -16 -15 -9 -74
-10 -399 -4 -309 6 -435 12 -581 28 -128 14 -231 1 -219 -29 4 -12 3 -13 -10
-2 -8 7 -22 10 -30 6 -8 -3 -32 6 -53 20 -20 14 -30 24 -22 23 8 -2 25 2 38 9
16 10 22 10 22 1 0 -9 20 -10 72 -6 88 8 104 20 44 36 -57 14 -115 14 -171 0
-36 -9 -47 -8 -58 3 -20 19 -33 48 -40 86 -6 30 -5 32 13 22 37 -20 203 -8
180 13 -11 10 -79 14 -125 7z m2053 -237 c-10 -2 -28 -2 -40 0 -13 2 -5 4 17
4 22 1 32 -1 23 -4z"/>
<path d="M387 263 c-42 -7 -22 -23 28 -23 55 0 82 9 63 21 -13 9 -41 9 -91 2z"/>
<path d="M553 259 c12 -7 27 -7 45 0 25 9 24 9 -18 10 -36 0 -41 -2 -27 -10z"/>
<path d="M1588 263 c6 -2 18 -2 25 0 6 3 1 5 -13 5 -14 0 -19 -2 -12 -5z"/>
<path d="M1651 246 c11 -9 69 -15 64 -6 -3 6 -20 10 -37 10 -17 0 -29 -2 -27
-4z"/>
<path d="M2237 223 c-4 -3 5 -12 20 -20 32 -16 46 -7 19 13 -22 16 -30 17 -39
7z"/>
<path d="M290 211 c0 -33 130 -48 180 -21 23 12 24 14 5 21 -28 11 -185 11
-185 0z"/>
<path d="M1728 213 c7 -3 16 -2 19 1 4 3 -2 6 -13 5 -11 0 -14 -3 -6 -6z"/>
<path d="M2147 213 c-13 -13 -7 -33 11 -33 19 0 49 17 42 23 -11 10 -47 17
-53 10z"/>
<path d="M122 200 c-60 -14 -46 -20 46 -20 92 0 128 12 71 24 -39 7 -74 6
-117 -4z"/>
<path d="M1678 203 c6 -2 18 -2 25 0 6 3 1 5 -13 5 -14 0 -19 -2 -12 -5z"/>
<path d="M1798 203 c6 -2 18 -2 25 0 6 3 1 5 -13 5 -14 0 -19 -2 -12 -5z"/>
<path d="M1840 173 c0 -4 5 -15 10 -23 8 -13 10 -13 10 2 0 9 -4 20 -10 23 -5
3 -10 3 -10 -2z"/>
<path d="M415 150 c-14 -6 -5 -9 35 -9 39 -1 51 2 40 9 -18 12 -48 12 -75 0z"/>
<path d="M1937 153 c-15 -14 -6 -23 23 -23 22 0 28 4 24 15 -6 15 -35 20 -47
8z"/>
<path d="M2110 148 l-35 -12 40 -7 c22 -3 33 -7 25 -8 -13 -1 -13 -3 1 -11 9
-5 34 -7 55 -5 21 2 51 4 67 4 26 1 38 23 19 35 -20 12 -139 15 -172 4z"/>
<path d="M1745 140 c44 -11 65 -11 65 0 0 6 -21 9 -47 9 -43 -1 -45 -2 -18 -9z"/>
</g>
</svg>
